<svg width="700" height="700" xmlns="http://www.w3.org/2000/svg" version="1.1">

 <g>
  <title>Layer 1</title>
  <g id="svg_25">
   <path d="m519.43,536.88c-2.0781,0 -4.0781,-1.1602 -5.0391,-3.1523c-17,-35 -28.223,-53.984 -56.734,-75.234c-11.789,-3.1641 -77.105,-22.266 -72.621,-55.559c0.51953,-3.8359 2.6367,-6.8281 5.957,-8.4219c2.0273,-0.97266 4.4844,-1.332 7.332,-1.1914c-17.02,-12.797 -35.945,-27.211 -45.383,-34.984c-10.852,-8.9375 -28.777,-25.906 -26.828,-39.105c0.85156,-5.7734 3.8594,-10.008 8.4688,-11.91c7.6055,-3.1367 18.109,0.39844 32.109,10.832c6.7422,5.0234 14.973,11.434 23.273,17.91c7.9648,6.2031 17.535,13.664 25.234,19.375c-3.4648,-5.6797 -7.6836,-12.617 -11.93,-20.531c-2.8828,-5.3867 -5.8672,-10.781 -8.7695,-16.027c-12.59,-22.758 -20.34,-37.18 -20.957,-46.453c-0.54688,-8.1758 4.0156,-18.504 12.324,-20.922c5.6016,-1.6289 14.035,-0.3125 22.488,15.16c3.8359,7.0234 8.4297,14.895 13.289,23.23c9.75,16.711 20.574,35.262 27.832,51.457c2.5469,-2.7773 5.9141,-5.4102 10.191,-6.7773c5.4883,-1.7578 11.328,-1.1602 17.383,1.7578c3.6523,-4.5859 10.191,-10.922 18.832,-11.531c7.5156,-0.55469 14.461,3.293 20.727,11.324c16.695,21.398 33.23,58.379 30.297,98.648c5.957,7.7266 31.199,40.438 57.691,74.387c1.9023,2.4414 1.4727,5.9531 -0.96875,7.8555c-2.4453,1.9023 -5.957,1.4727 -7.8555,-0.96875c-30.352,-38.891 -59.059,-76.16 -59.059,-76.16c-0.86328,-1.1133 -1.2695,-2.5156 -1.1406,-3.9219c3.4258,-37.879 -12.105,-72.855 -27.789,-92.961c-3.8398,-4.918 -7.6875,-7.2812 -11.09,-7.043c-5.9453,0.39844 -11.504,7.7656 -13.137,10.574c-0.77734,1.332 -2.0781,2.2969 -3.5898,2.6484c-1.5,0.33984 -3.0977,0.05469 -4.375,-0.80078c-4.7773,-3.2031 -8.9727,-4.2617 -12.48,-3.1641c-5.1953,1.6289 -8.6367,7.8867 -9.5195,10.16c-0.83984,2.1523 -2.918,3.5781 -5.2266,3.5781l-0.05469,0c-2.3281,-0.02734 -4.4023,-1.4727 -5.207,-3.6562c-6.3555,-17.297 -19.523,-39.867 -31.141,-59.781c-4.8984,-8.4062 -9.5312,-16.34 -13.445,-23.504c-4.6758,-8.5586 -8.2891,-10.137 -9.5195,-9.7734c-2.1055,0.60938 -4.5586,5.293 -4.2852,9.4258c0.48047,7.2539 10.188,24.801 19.578,41.77c2.9219,5.293 5.9375,10.73 8.8477,16.16c4.3242,8.0703 8.6797,15.191 12.176,20.906c6.8984,11.289 9.7539,15.961 8.3672,20.305c-0.58203,1.8242 -1.9336,3.3047 -3.6914,4.0586c-4.7031,2.0117 -8.2891,0.125 -46.918,-29.988c-8.2383,-6.418 -16.391,-12.773 -23.082,-17.762c-15.262,-11.375 -20.59,-9.6836 -21.141,-9.4531c-0.83984,0.34766 -1.3984,1.4219 -1.6641,3.1992c-0.75,5.0781 9.082,17.473 22.871,28.816c18.84,15.523 78.316,59.551 78.914,59.992c2.4023,1.7734 2.9844,5.1289 1.3203,7.6094c-1.6641,2.4805 -4.9766,3.2422 -7.543,1.6875c-15.676,-9.4297 -33.285,-16.301 -36.922,-14.363c-2.5195,20.727 47.828,38.672 65.688,43.316c0.69531,0.17969 1.3438,0.49219 1.9219,0.91406c32.223,23.781 44.547,46.082 61.012,79.992c1.3477,2.7773 0.19141,6.1328 -2.5938,7.4805c-0.77734,0.39062 -1.6094,0.57031 -2.4258,0.57031l0.00194,-0.00004z" id="svg_26"/>
   <path d="m262.43,323.88c-9.9062,0 -19.777,-1.1641 -27.41,-2.6211c-9.5156,-1.8086 -22.008,-5.8359 -34.094,-9.7227c-14.234,-4.582 -28.945,-9.3203 -38.109,-10.254c-3.707,-0.38672 -31.371,2.0039 -47.898,3.4375c-6.3672,0.54688 -12.156,1.0469 -16.48,1.3945c-3.0898,0.19141 -5.7852,-2.0508 -6.0273,-5.1367c-0.24219,-3.082 2.0586,-5.7812 5.1367,-6.0273c4.3008,-0.34766 10.07,-0.83984 16.406,-1.3906c26.488,-2.2773 45.574,-3.8516 49.996,-3.4219c10.336,1.0547 25.625,5.9766 40.402,10.734c11.762,3.793 23.922,7.707 32.754,9.3867c23.078,4.3945 50.898,3.1367 55.609,-6.5859c0.60547,-1.2422 0.55469,-1.7695 0.55469,-1.7734c-1.3438,-1.9766 -9.1953,-2.8672 -23.426,-2.8906c-1.6289,0.01562 -3.1094,0.01562 -4.3555,0.00391c-0.22266,-0.00391 -22.23,-0.89062 -25.949,-9.8945c-1.2305,-2.9805 -0.48828,-6.2812 2,-8.832c4.6016,-4.7266 13.758,-5.125 26.438,-5.6797c8.5,-0.37109 18.129,-0.78906 25.137,-2.832c2.418,-0.70703 4.9336,-1.3945 7.4688,-2.0898c9.168,-2.5078 26.23,-7.1797 26.086,-11.543c-0.03906,-1.2773 -0.4375,-1.793 -0.8125,-2.1289c-1.5117,-1.3477 -4.8789,-1.5898 -6.5195,-1.5195c-4.4258,0.85156 -44.816,8.4375 -63.117,8.2539c-4.3164,-0.05079 -13.793,-5.6211 -14.59,-11.969c-0.41016,-3.2812 1.2109,-7.3398 6.9883,-8.8867c3.3867,-0.90625 9.0898,-3.0508 15.688,-5.5391c11.898,-4.4844 28.195,-10.625 45.137,-14.914c16.055,-4.0664 19.594,-9.0312 20.371,-10.977c0.78516,-1.9766 -0.16406,-3.5625 -0.27344,-3.7344c-0.27344,-0.4375 -0.58984,-1.0547 -0.73438,-1.5508c-0.70703,-2.3672 -1.6758,-3.1133 -2.5273,-3.5273c-2.1992,-1.0703 -8.3672,-1.8867 -24.949,4.6367c-14.875,5.8516 -64.055,24.102 -72.598,13.574c-1.8125,-2.2383 -2.4023,-4.9727 -1.6523,-7.6875c1.9727,-7.1172 13.363,-12.551 31.098,-19.008l1.2266,-0.44922c11.871,-4.3438 38.496,-22.188 38.254,-27.934c-0.08594,-2.0039 -1.0586,-3.4766 -2.9844,-4.4844c-3.5898,-1.8867 -10.914,-2.1055 -19.789,3.4766c-3.1133,1.9531 -7.3477,4.8047 -12.242,8.0977c-16.289,10.961 -38.594,25.969 -52.953,30.934c-7.0391,2.4414 -14.75,4.2578 -18.496,-0.75c-2.6484,-3.5273 -1.3398,-7.9531 0.76563,-10.914c0.46094,-0.66797 12.465,-18.109 20.324,-27.934c6.1875,-7.7344 8.9258,-14.461 8.5117,-16.285c-0.07813,0.0625 -0.81641,-0.21875 -2.6484,-0.21875c-0.41016,0 -0.875,0.01171 -1.3984,0.04296c-22.578,1.5078 -42.203,43.059 -47.852,58.941c-0.27344,0.76562 -0.71094,1.4688 -1.2812,2.0508c-6.0312,6.1445 -50.191,24.422 -68.719,27.453c-3.0469,0.50391 -5.9375,-1.5664 -6.4297,-4.6211c-0.5,-3.0508 1.5664,-5.9297 4.6211,-6.4297c17.734,-2.9062 54.965,-19.129 61.812,-23.715c3.7539,-9.9414 25.156,-62.719 57.102,-64.848c9.1953,-0.59766 13.094,3 14.727,6.1484c4.4961,8.6055 -4.1484,21.539 -9.6992,28.477c-5.1367,6.418 -12.355,16.559 -16.531,22.523c0.47656,-0.15234 0.98438,-0.32031 1.5273,-0.50781c12.98,-4.4922 35.477,-19.629 50.367,-29.645c5.0078,-3.3711 9.3477,-6.2891 12.531,-8.2891c10.785,-6.7773 22.645,-8.2812 30.957,-3.9102c5.4414,2.8633 8.707,7.9336 8.9609,13.926c0.76172,18.188 -45.125,38.746 -45.59,38.922l-1.2539,0.46094c-10.039,3.6523 -15.992,6.332 -19.504,8.2617c12.438,-1.668 38.629,-9.7539 54.723,-16.09c16.348,-6.4336 26.82,-7.7578 33.945,-4.2852c3.875,1.8867 6.6094,5.1367 8.125,9.6641c1.1484,2.0156 3.2656,6.9375 1.0742,12.938c-2.9336,8.0352 -12.422,14.129 -28.191,18.121c-16.328,4.1328 -32.285,10.148 -43.934,14.539c-4.7031,1.7695 -8.7578,3.2969 -12.105,4.4336c0.23438,0.11719 0.44141,0.21094 0.62891,0.27344l0.3125,0c18.336,0 60.031,-8.0352 60.457,-8.1211c1.5117,-0.16406 10.07,-0.80078 15.703,4.1602c2.8789,2.543 4.4727,6.0586 4.6133,10.168c0.44141,13.203 -17.23,18.043 -34.324,22.719c-2.4766,0.67578 -4.9336,1.3477 -7.2969,2.0391c-8.3047,2.4258 -18.652,2.8711 -27.781,3.2695c-3.5664,0.15234 -8.0977,0.34766 -11.871,0.74609c3.2148,0.71094 6.7461,1.2383 9.0664,1.2695c1.1758,0.01172 2.5742,0.01172 4.1172,-0.0039c14.59,-0.0625 28.105,0.45313 33.02,8.2266c1.5664,2.4883 2.8438,6.6758 0.01172,12.527c-5.6914,11.789 -23.07,15.34 -40.355,15.34l-0.00363,0.00244z" id="svg_27"/>
   <path d="m592.36,21.102c-2.6992,-1.5195 -6.1211,-0.54297 -7.6172,2.1602c-24.426,43.781 -53.145,96.758 -53.43,97.289c-0.35938,0.66016 -0.58203,1.3828 -0.64844,2.1289c-4.2734,44.012 -20.973,70.688 -39.184,96.344c-5.2148,7.3477 -11.828,11.594 -18.633,11.961c-4.75,0.25781 -8.2812,-1.4492 -10.098,-3.1602c-0.08984,-1.6367 0.93359,-5.6953 2.2734,-8.8633c1.0469,-2.4688 0.18359,-5.3359 -2.0391,-6.832c-2.2305,-1.4961 -5.2148,-1.1914 -7.0938,0.70703c-9.3008,9.3906 -17.938,13.059 -24.293,10.344c-4.4805,-1.9102 -6.7773,-6.6367 -6.707,-9.3125c0.07812,-2.0273 3.4336,-9.5742 7.1914,-16.168c1.3945,-2.4531 0.74609,-5.5625 -1.5195,-7.2539c-2.2617,-1.6914 -5.4375,-1.4336 -7.3906,0.60547c-0.16797,0.17188 -17.199,17.367 -25.996,9.4297c-8.9102,-8.0352 -1.6172,-18.195 -0.77734,-19.305c1.6562,-2.1289 1.5586,-5.1367 -0.23047,-7.1562c-1.793,-2.0273 -4.7773,-2.4648 -7.0781,-1.082c-3.2812,1.9727 -14.129,7.1641 -20.707,5.3477c-1.9336,-0.53906 -3.2305,-1.6133 -4.2188,-3.4883c-3.6289,-6.8945 3.7695,-14.789 9.1289,-19.309l36.203,-20.367c2.6953,-1.5195 3.6523,-4.9297 2.1328,-7.6289c-1.5195,-2.6953 -4.9297,-3.6562 -7.6211,-2.1328l-28.805,16.199c-1.0352,-0.01172 -2.0781,0.16797 -3.0195,0.75781c-0.53906,0.33984 -1.1016,0.71875 -1.6641,1.1016c-3.9258,-4.832 -3.1484,-8.0195 -2.8438,-9.1992c4.2461,-16.25 52.078,-32.484 81.234,-38.898c0.82813,-0.18359 1.6133,-0.55469 2.2773,-1.082c17.289,-13.719 35.012,-35.004 52.68,-63.258c1.6406,-2.6211 0.83984,-6.0742 -1.7734,-7.7188c-2.625,-1.6523 -6.082,-0.83984 -7.7188,1.7734c-16.648,26.617 -33.188,46.672 -49.156,59.629c-12.828,2.918 -81.312,19.668 -88.375,46.715c-1.2383,4.7422 -1.0547,11.625 5.125,19.195c-7.6211,7.7852 -13.453,18.547 -7.7188,29.43c2.4023,4.5625 6.2422,7.6992 11.109,9.0625c5.3633,1.4883 11.273,0.66797 16.398,-0.83594c-0.85547,6.5898 0.73438,14.086 7.9062,20.559c7.3398,6.6133 16.25,5.9258 24.32,2.3984c-0.17969,0.86719 -0.29297,1.6797 -0.30859,2.4023c-0.16797,6.9492 4.4258,16.012 13.523,19.887c4.7422,2.0156 13.344,3.5938 24.617,-3.1211c0.33594,1.6641 0.99609,3.1914 2.1094,4.4531c4.1602,4.6875 10.793,7.3984 17.961,7.3984c0.51562,0 1.0352,-0.01172 1.5508,-0.03906c10.281,-0.55859 19.93,-6.4727 27.16,-16.664c18.969,-26.719 36.379,-54.531 41.086,-100.61c4.0586,-7.4805 30.273,-55.766 52.824,-96.176c1.5234,-2.7031 0.55469,-6.1172 -2.1484,-7.6211l0.00364,0.00379z" id="svg_28"/>
  </g>
 </g>
</svg>