<svg width="700" height="700" xmlns="http://www.w3.org/2000/svg" version="1.1">

 <g>
  <title>Layer 1</title>
  <path d="m601.89,529.57c-1.3711,-2.8516 -32.809,-67.895 -68.789,-103.2c4.2852,-5.5156 6.7578,-12.582 4.2383,-20.984c-3.0117,-10.02 -10.59,-15.539 -21.332,-15.539c-5.8516,0 -10.602,1.6758 -11.434,1.9883c-0.55469,0.24219 -2.7109,1.1875 -6.082,2.6992c-11.039,-16.566 -93.605,-140.79 -102.75,-163.92c-5.3047,-13.422 -9.25,-36.953 -13.074,-59.711c-3.207,-19.105 -6.5312,-38.863 -10.719,-52.914c-8.4609,-28.422 -32.367,-81.859 -62.141,-81.191c-8.5898,0.23047 -12.652,4.1328 -14.547,7.3711c-6.3516,10.848 2.1211,28.824 12.145,47.852c1.1133,2.1094 2.1172,4.0273 2.9336,5.6562c3.2773,6.5625 6.8828,19.59 6.7969,25.145c-4.4336,-3.2422 -11.219,-15.047 -16.777,-24.723c-6.8945,-12.008 -14.711,-25.609 -23.621,-34.949c-2.6133,-2.7422 -5.2812,-5.6328 -7.9648,-8.5469c-17.629,-19.113 -35.875,-38.879 -51.457,-30.109c-4.7695,2.6758 -7.9336,6.6758 -9.1562,11.57c-2.4883,9.9609 3.8086,20.16 4.8555,21.738c0.42188,0.52734 42.027,53.246 54.395,77.816c0.48047,1.5977 0.16797,5.8008 -0.55859,8.5352c-4.1602,-4.4141 -10.684,-10.281 -18.805,-17.59c-14.242,-12.812 -33.738,-30.352 -50.98,-49.785c-15.863,-17.875 -29.973,-26.176 -41.938,-24.625c-7.8242,1.0039 -12.82,6.0977 -14.914,9.5312c-4.6328,4.7109 -6.9062,10.059 -6.7578,15.898c0.26953,11.094 9.4062,24.129 28.75,41.027c25.07,21.902 63.102,61.461 65.715,72.336c-3.1211,-0.52734 -11.621,-4.6641 -34.203,-25.457l-1.5,-1.3789c-4.6016,-4.2188 -60.91,-46.078 -81.633,-34.234c-7.0352,4.0273 -11.094,11.117 -11.145,19.453c-0.08984,13.324 9.7539,27.426 25.668,36.793c4.9492,2.9102 11.949,6.7461 20.035,11.168c24.27,13.281 60.949,33.348 76.5,48.121c3.8516,3.6562 6.0078,6.2031 7.2227,7.8867c-5.8086,-0.73828 -33.879,-4.3945 -50.406,-7.6953c-10.191,-2.0391 -34.719,-5.5547 -42.59,5.6562c-3.7969,5.4141 -3.0781,12.527 2.1289,21.129c25.082,41.434 113.93,32.066 126.67,30.477c20.934,8.875 81.543,101.64 115.91,159.85c-2.5664,2.4883 -4.8008,4.918 -6.5195,7.2617c-3.707,5.0625 -6.1836,18.547 -1.9922,26.809c2.4688,4.8711 6.8828,7.5547 12.422,7.5547c3.4141,0 7.1641,-0.99609 11.457,-3.0586c1.8984,-0.91406 4.3281,-2.1094 7.1289,-3.5117c4.5938,6.2148 14.426,18.066 35.281,42.852c1.1094,1.3164 2.6953,1.9922 4.2969,1.9922c1.2695,0 2.5469,-0.42969 3.6016,-1.3086c2.3672,-1.9883 2.6758,-5.5234 0.68359,-7.8906c-13.027,-15.484 -27.25,-32.648 -33.691,-40.789c34.613,-17.684 98.117,-51.25 103.64,-54.168c2.4062,-0.98438 5.2344,-2.4766 8.0352,-4.4258c34.719,33.859 66.551,99.707 66.875,100.39c0.96094,2 2.9609,3.1719 5.0508,3.1719c0.8125,0 1.6367,-0.17187 2.418,-0.55469c2.7891,-1.3398 3.9648,-4.6836 2.6211,-7.4727l0.0021,0.00319zm-260.46,-150.21c-54.09,-81.297 -69.441,-86.012 -74.484,-87.566c-0.77734,-0.24219 -1.5977,-0.3125 -2.4062,-0.19141c-0.93359,0.12891 -94.281,12.449 -116.95,-25.004c-3,-4.957 -3.2773,-7.8438 -2.543,-8.8984c2.4922,-3.5508 16.496,-4.043 31.227,-1.1094c18.805,3.7578 50.922,7.7969 52.191,7.9531c4.4805,0.62891 10.051,-0.34766 12.293,-4.9961c3.3359,-6.9062 -3.8789,-15.125 -11.387,-22.254c-16.609,-15.773 -52.578,-35.461 -78.848,-49.824c-7.957,-4.3555 -14.855,-8.125 -19.73,-10.992c-14.945,-8.7969 -20.203,-20.086 -20.16,-27.082c0.01563,-3.0391 0.98438,-7.2109 5.5039,-9.8008c10.359,-5.9297 55.332,20.703 68.5,32.77l1.4844,1.3594c20.02,18.434 35.348,30.27 45.164,28.219c3.2578,-0.6875 5.8125,-2.8008 7.1836,-5.9453c8.0078,-18.344 -65.762,-83.074 -68.906,-85.82c-16.348,-14.285 -24.734,-25.344 -24.922,-32.867c-0.07422,-2.9453 1.1406,-5.4609 3.9414,-8.1602c0.40234,-0.38672 0.79688,-0.92578 1.0625,-1.418c0.08984,-0.15625 2.2305,-3.9531 7.0664,-4.4922c4.5234,-0.51562 14.723,1.5352 31.965,20.965c17.664,19.902 37.438,37.688 51.871,50.68c8.4336,7.5898 15.098,13.586 18.828,17.68c6.1562,6.7422 11.602,3.8516 13.125,2.8008c6.6523,-4.5703 7.4883,-19.605 5.0352,-24.5c-12.992,-25.867 -54,-77.816 -55.418,-79.566c-1.1602,-1.8086 -4.2227,-7.9961 -3.0898,-12.531c0.29688,-1.1914 1.0117,-2.9609 3.7695,-4.5117c7.8867,-4.4258 25.145,14.281 37.75,27.938c2.7266,2.957 5.4375,5.8906 8.0938,8.6797c7.9727,8.3672 15.434,21.348 22.012,32.801c8.9922,15.656 16.102,28.027 24.645,30.621c5.8281,1.7656 9.1328,-1.2109 10.281,-2.5703c8.1602,-9.6641 -5.0781,-38.762 -5.2266,-39.047c-0.84375,-1.6953 -1.8945,-3.6836 -3.0469,-5.875c-4.8203,-9.1562 -16.117,-30.598 -12.387,-36.973c0.67188,-1.1406 2.4141,-1.7578 5.1758,-1.8359c20.266,-0.46484 41.965,42.488 51.117,73.199c3.9922,13.391 7.2539,32.801 10.398,51.57c3.9219,23.328 7.9688,47.449 13.707,61.969c9.4375,23.895 88.324,142.73 102.85,164.52c-25.008,11.625 -72.359,34.887 -99.008,55.988c-5.6992,-9.5625 -25.496,-42.453 -47.73,-75.883l0.002,0.00071zm171.02,48.812c-0.18359,0.07422 -0.36328,0.15625 -0.54688,0.25391c-0.86328,0.45312 -75.98,40.176 -109.54,57.172c-0.00391,0 -0.00391,0 -0.01172,0.00391c-0.00391,0 -0.00391,0.0039 -0.00391,0.0039c-4.6367,2.3477 -8.4961,4.2734 -11.234,5.5898c-3.3711,1.6133 -5.4609,1.9531 -6.6133,1.9531c-1.4336,0 -1.9375,-0.46484 -2.4062,-1.3789c-2.1523,-4.1445 -0.41406,-13.133 1.0195,-15.164c20.91,-28.527 124.9,-74.031 125.61,-74.352c0.03516,-0.01171 3.3867,-1.1914 7.2969,-1.1914c5.7578,0 9.0273,2.3359 10.602,7.5703c1.8086,6.0195 -1.4609,10.785 -5.3086,14.105c-0.0625,0.0625 -0.14453,0.08594 -0.20312,0.14453c-0.01562,0.01563 -0.01562,0.03907 -0.03515,0.05469c-3.8984,3.2734 -8.2773,5.0859 -8.6328,5.2344l0.00728,0.00076z" id="svg_26"/>
 </g>
</svg>