<svg width="700" height="700" xmlns="http://www.w3.org/2000/svg" version="1.1">

 <g>
  <title>Layer 1</title>
  <path d="m602.36,442.16c-0.24219,-0.30078 -23.961,-30.645 -35.648,-51.777c-5.707,-10.309 -12.039,-15.562 -18.172,-20.652c-7.3477,-6.0938 -14.293,-11.844 -20.066,-27.391c-0.15625,-0.42578 -0.44922,-0.75 -0.6875,-1.1094c0.84375,-4.457 1.2109,-8.418 0.92969,-11.66c-1.6367,-18.906 -14.391,-20.945 -19.801,-20.945c-8.0977,0 -15.566,3.875 -16.391,4.3164c-0.87891,0.47656 -1.6172,1.1719 -2.1406,2.0234l-5.8008,9.5156c-90.098,-58.203 -151.71,-113.49 -178.31,-160.14c-1.0078,-16.504 -8.3711,-113.39 -42.656,-128.54c-8.4336,-3.7188 -17.484,-2.4688 -26.953,3.625c-7.5312,-10.832 -20.238,-23.27 -36.781,-17.719c-6.1562,2.0664 -10.812,6.1992 -13.469,11.961c-3.5039,7.5938 -3.1523,16.895 -1.7969,24.605c-8.7461,-3.5273 -19.875,-4.0547 -30.801,4.7109c-11.621,9.3242 -10.516,23.102 -6.4609,34.609c-2.5742,-1.3594 -4.9961,-2.375 -6.9766,-2.7422c-8.4492,-1.5898 -21.055,2.4414 -27.73,13.016c-3.7578,5.9453 -7.7461,17.562 0.30078,35.168c-3.1484,-0.46484 -6.1719,-0.19531 -8.6055,1.3555c-7.2461,4.5977 -12.207,13.289 -13.273,23.258c-1.4297,13.395 4.25,27.137 15.992,38.707c31.871,31.387 65.555,60.906 126.63,77.211c12.75,9.8438 156.09,120.63 185.29,146.87c-5.3477,6.4727 -13.895,18.91 -11.289,29.836c1.0547,4.4258 4.3789,10.387 14.23,13.707c7.1445,2.4141 13.176,3.5859 18.414,3.5859c2.6562,0 5,-0.37891 7.2305,-0.92578c11.008,1.25 38.395,7.2578 45.543,21.75c10.719,21.75 32.047,39.047 32.957,39.77c1.0352,0.82812 2.2695,1.2383 3.5,1.2383c1.6406,0 3.2656,-0.71875 4.3672,-2.0938c1.9375,-2.4062 1.5508,-5.9375 -0.85547,-7.8672c-0.19531,-0.16406 -20.281,-16.441 -29.926,-35.996c-7.375,-14.953 -27.137,-22.148 -40.941,-25.457c3.4336,-3.4258 6.6367,-7.5547 10.109,-12.039l1.6562,-2.1406c10.406,-13.379 37.543,-61.293 49.285,-96.008c5.7617,10.289 12.242,15.68 18.129,20.562c5.5781,4.625 10.848,8.9922 15.523,17.457c12.125,21.918 35.637,51.996 36.637,53.266c1.1016,1.4062 2.75,2.1445 4.4141,2.1445c1.2109,0 2.4258,-0.38672 3.4492,-1.1914c2.4297,-1.9258 2.8555,-5.4414 0.94531,-7.8789l-0.00071,0.00478zm-364.72,-169.14c-59.113,-15.547 -91.777,-44.18 -122.72,-74.652c-9.2617,-9.1172 -13.777,-19.605 -12.719,-29.535c0.82812,-7.7734 4.7422,-12.836 7.7734,-14.816c1.8867,-0.39063 8.3594,2.1797 13.383,5.332c2.2773,1.4297 5.2461,1.0352 7.0742,-0.92578c1.832,-1.9648 2.0117,-4.9453 0.4375,-7.1172c-11.195,-15.371 -14.301,-28.672 -8.7539,-37.457c3.8398,-6.0742 11.395,-8.8828 16.211,-7.9805c3.3984,0.63281 13.664,7.6055 21.223,13.699c2.1992,1.7734 5.3828,1.6367 7.4141,-0.33594c2.0312,-1.9727 2.2734,-5.1406 0.57031,-7.3984c-0.21094,-0.28125 -20.996,-28.629 -6.7031,-40.102c14.312,-11.504 27.652,1.8438 29.113,3.3828c1.8359,1.9805 4.8203,2.3594 7.0938,0.91797c2.2773,-1.4453 3.2031,-4.3047 2.207,-6.8086c-2.1797,-5.4648 -6.9062,-21.672 -2.6484,-30.863c1.3945,-3.0078 3.5742,-4.9219 6.8594,-6.0312c11.52,-3.8711 21.48,9.0391 26.719,17.77l19.656,53.523c1.0703,2.9062 4.2891,4.4062 7.1836,3.3281c2.9062,-1.0625 4.3906,-4.2852 3.3281,-7.1836l-15.793,-42.996c0.33203,-1.1797 0.36328,-2.457 -0.15625,-3.6797c-0.125,-0.30469 -0.78906,-1.8398 -1.9336,-4.0586c6.2734,-4.1172 11.754,-5.1406 16.637,-2.9805c24.684,10.902 34.41,90.484 36.074,120.23c0.05078,0.85156 0.29297,1.6797 0.70703,2.4258c27.559,49.207 89.125,104.83 182.88,165.35l-53.184,87.254c-33.492,-29.641 -179.34,-142.21 -185.94,-147.3c-0.58594,-0.46094 -1.2695,-0.79688 -1.9922,-0.98828l-0.00099,-0.00337zm227.5,173.89l-1.6758,2.1602c-9.2734,11.988 -13.77,17.289 -23.129,17.289c-4.0039,0 -8.8594,-0.98047 -14.836,-2.9922c-6.0312,-2.0312 -6.6914,-4.7891 -6.9062,-5.6953c-1.6367,-6.8281 7.5039,-18.895 12.188,-23.672c0.30078,-0.30859 0.57031,-0.64453 0.78906,-1.0117l59.504,-97.629c0.00391,-0.00391 0.01172,-0.01172 0.01562,-0.01563c0.00391,-0.0039 0.00391,-0.01171 0.00391,-0.01562l7.9844,-13.105c1.9805,-0.86719 5.9805,-2.3906 9.832,-2.3906c2.5039,0 7.7188,0 8.6445,10.711c2.0703,23.723 -39.047,99.172 -52.414,116.37l-0.00049,-0.00315z" id="svg_26"/>
  <rect fill="#fff" stroke="#ffffff" x="232" y="524" width="0" height="1" id="svg_69"/>
 </g>
</svg>