<svg width="700" height="700" xmlns="http://www.w3.org/2000/svg" version="1.1">

 <g>
  <title>Layer 1</title>
  <path d="m602.26,503.78c-0.42188,-0.89453 -10.602,-22.25 -27.043,-36.348c-15.805,-13.551 -18.766,-23.262 -18.57,-25.855c0.37891,-5.0078 -1.9766,-10.047 -3.8789,-13.25c2.1016,-4.6914 3.0391,-10.859 2.4141,-19.285c-0.83594,-11.289 -7.9844,-17.762 -19.609,-17.762c-1.4219,0 -2.8555,0.125 -4.2773,0.29297c-20.371,-21.043 -129.26,-136.84 -143.32,-151.8c-1.1133,-52.16 -26.336,-97.047 -49.824,-121.85c-8.3906,-8.8594 -17.047,-12.57 -25.762,-11.027c-10.988,1.9414 -18.543,12.035 -22.262,18.316c-7.8359,-3.0078 -15.062,-3.0703 -21.566,-0.20703c-6.0156,2.6562 -10.242,7.4141 -13.098,11.945c-11.105,-20.109 -27.512,-43.035 -42.246,-63.629c-7.125,-9.9609 -13.859,-19.371 -19.543,-27.816c-11.777,-17.488 -21.723,-18.207 -28,-15.719c-9.3984,3.7188 -13.949,17.023 -12.309,27.121c1.9648,12.098 15.785,32.391 31.793,55.887c4.2891,6.3008 8.6953,12.77 12.98,19.246c6.6289,10.02 13.086,18.66 18.285,25.598c1.3672,1.832 2.7891,3.7305 4.1328,5.5547c-11.047,-6.2383 -27.641,-16.621 -40.945,-24.941c-10.953,-6.8555 -22.281,-13.938 -31.383,-19.348c-18.148,-10.797 -31.199,-13.766 -39.898,-9.0703c-5.2188,2.8125 -8.2773,8.2656 -8.6055,15.355c-0.79687,17.109 26.215,36.98 37.863,44.727c13.562,9.0234 42.168,26.387 66.383,40.906c-5.6289,-0.41406 -10.602,0.17969 -14.117,2.3398c-3.6328,2.2344 -5.7227,5.9453 -5.8789,10.457c-0.66016,19.344 16.129,35.133 49.906,46.938c21.105,7.3789 42.016,10.762 47.129,11.523c45.277,27.156 80.477,86.195 106.23,129.39c3.0703,5.1406 5.9961,10.035 8.8555,14.758c-2.8945,3.7305 -6.5312,9.9609 -5.1875,16.816c1.1719,5.957 5.6562,10.566 13.281,13.742c2.1602,5.5781 9.1602,10.645 17.031,16.301c4.0312,2.9023 8.1992,5.8984 9.9297,7.8867c7.4492,8.5391 20.031,40.461 24.254,52.035c0.82422,2.2695 2.9727,3.6797 5.2578,3.6797c0.63672,0 1.2812,-0.11328 1.9219,-0.33984c2.9062,-1.0586 4.4023,-4.2734 3.3438,-7.1797c-1.625,-4.457 -16.18,-43.902 -26.332,-55.551c-2.582,-2.9688 -7.0781,-6.1992 -11.832,-9.625c-1.4727,-1.0586 -3.3867,-2.4375 -5.2969,-3.8789c2.1055,0.10156 4.2969,0.16797 6.6797,0.16797c31.922,0 81.367,-9.1992 96.02,-14.18l2.2305,-0.75781c6.625,-2.2383 12.668,-4.3125 17.449,-7.6328c0.40234,1.1094 0.69922,2.1797 0.63672,3.0195c-0.69922,9.3867 7.6875,22.539 22.445,35.191c14.594,12.512 24.121,32.434 24.207,32.633c0.95703,2.0234 2.9688,3.207 5.0664,3.207c0.80078,0 1.6133,-0.17187 2.3867,-0.53906c2.793,-1.3047 3.9922,-4.6367 2.6758,-7.4375l-0.00342,-0.0044zm-316.5,-231.91c-0.63672,-0.375 -1.3477,-0.62109 -2.082,-0.72266c-24.949,-3.3945 -89.477,-18.48 -88.496,-47.152c0.03516,-0.98047 0.27344,-1.125 0.54687,-1.293c5.7344,-3.5273 30.117,3.625 49.293,12.516c2.7227,1.2539 5.9258,0.16797 7.3125,-2.4766c1.3906,-2.6445 0.46094,-5.9062 -2.1094,-7.4258c-0.80469,-0.47656 -80.859,-47.719 -106.43,-64.73c-19.699,-13.105 -33.219,-27.453 -32.871,-34.883c0.14062,-3.0977 1.0586,-5.1172 2.7266,-6.0156c1.7148,-0.93359 8.8945,-3.0352 28.863,8.8359c8.9883,5.3477 20.266,12.398 31.164,19.219c51.262,32.07 56.242,34.125 61.203,31.18c1.7148,-1.0117 2.8711,-2.6562 3.2656,-4.6133c1.0039,-5.0195 -3.0234,-10.395 -12.738,-23.391c-5.1055,-6.8281 -11.465,-15.32 -17.914,-25.07c-4.3164,-6.5195 -8.7461,-13.031 -13.066,-19.371c-13.977,-20.52 -28.426,-41.738 -29.992,-51.379c-0.94531,-5.8359 1.8125,-13.496 5.375,-14.906c2.5938,-1.0469 7.7969,1.4727 14.59,11.559c5.7773,8.5781 12.555,18.047 19.73,28.078c17.074,23.863 36.43,50.91 46.609,72.32c1.0078,2.1172 3.207,3.3828 5.5703,3.1641c2.3359,-0.21094 4.2969,-1.8711 4.8984,-4.1367c0.03516,-0.11719 3.3555,-12.195 11.934,-15.949c4.6016,-2.0117 10.281,-1.2656 16.891,2.2109c1.3828,0.72656 3.0078,0.84375 4.4727,0.32422c1.4727,-0.51562 2.6602,-1.6289 3.2773,-3.0586c1.6875,-3.8984 8.3438,-15.34 16.57,-16.801c4.7891,-0.8125 10.047,1.7539 15.676,7.6992c22.348,23.609 46.379,66.602 46.789,116.45c0.01172,1.4062 0.55469,2.7617 1.5195,3.793c4.8984,5.2148 110.27,117.31 140.39,148.77c-2.2969,0.8125 -4.0898,1.5664 -4.9688,1.9648l-108.04,23.91c-2.8555,-4.7227 -5.7891,-9.6133 -8.8594,-14.762c-26.543,-44.527 -62.902,-105.51 -111.1,-133.86l-0.00017,0.00214zm238.05,162.86l-2.25,0.76562c-13.664,4.6484 -62.094,13.578 -92.406,13.578c-11.504,0 -17.191,-1.2695 -19.945,-2.3242c-3.0234,-1.1719 -6.7461,-3.1367 -7.2969,-5.8477c-0.56641,-2.8398 2.0156,-6.7461 3.9688,-8.9766l110.86,-24.539c0.41016,-0.09375 0.8125,-0.23047 1.1875,-0.41016c0.10156,-0.04297 9.6641,-4.5195 17.645,-4.5195c6.5742,0 8.1016,2.8281 8.4453,7.3906c0.56641,7.6328 -0.0625,12.27 -2.2852,15.527c-0.11719,0.16797 -0.27344,0.30859 -0.375,0.48828c-3.0078,3.9336 -8.5625,5.832 -17.551,8.8672l0.0025,0.00046z" id="svg_26"/>
 </g>
</svg>